<svg width="57" height="57" viewBox="0 0 57 57" fill="none" xmlns="http://www.w3.org/2000/svg">
<path d="M29.9566 9.88837L28.5 11.345L27.0431 9.88812C24.3116 7.15655 20.6068 5.62197 16.7437 5.62197C12.8807 5.62197 9.17589 7.15655 6.44432 9.88812C3.71274 12.6197 2.17816 16.3245 2.17816 20.1875C2.17816 24.0506 3.71274 27.7554 6.44432 30.4869L8.96182 33.0044L27.4393 51.4819C28.0251 52.0677 28.9749 52.0677 29.5606 51.4819L48.0381 33.0044L50.5554 30.4872C50.5555 30.4871 50.5556 30.487 50.5556 30.4869C51.9085 29.1347 52.9817 27.5291 53.7139 25.7619L52.3282 25.1878L53.7139 25.7619C54.4462 23.9947 54.8231 22.1005 54.8231 20.1875C54.8231 18.2746 54.4462 16.3804 53.7139 14.6131L52.3282 15.1873L53.7139 14.6131C52.9817 12.8461 51.9086 11.2406 50.5559 9.88837C49.2035 8.53539 47.5979 7.46212 45.8306 6.72986C44.0634 5.99759 42.1692 5.6207 40.2562 5.6207C38.3433 5.6207 36.4491 5.99759 34.6818 6.72986C32.9146 7.46212 31.3089 8.5354 29.9566 9.88837Z" stroke="#BD492F" stroke-width="3" stroke-linecap="round" stroke-linejoin="round"/>
</svg>
